<svg xmlns="http://www.w3.org/2000/svg" xmlns:xlink="http://www.w3.org/1999/xlink" viewBox="0 0 57.36 77.57"><defs><style>.cls-1{fill:url(#linear-gradient);}.cls-2{fill:url(#linear-gradient-2);}.cls-3{fill:url(#linear-gradient-3);}</style><linearGradient id="linear-gradient" y1="46.74" x2="57.36" y2="46.74" gradientUnits="userSpaceOnUse"><stop offset="0" stop-color="#00a9da"/><stop offset="0.27" stop-color="#2187c2"/><stop offset="0.57" stop-color="#3f69ad"/><stop offset="0.82" stop-color="#5157a0"/><stop offset="1" stop-color="#58509b"/></linearGradient><linearGradient id="linear-gradient-2" x1="28.68" y1="-0.67" x2="28.68" y2="58.87" xlink:href="#linear-gradient"/><linearGradient id="linear-gradient-3" x1="35.85" y1="-22.9" x2="35.85" y2="67.15" gradientUnits="userSpaceOnUse"><stop offset="0" stop-color="#00a6aa"/><stop offset="1" stop-color="#00a9da"/></linearGradient></defs><g id="Livello_2" data-name="Livello 2"><g id="Livello_1-2" data-name="Livello 1"><path class="cls-1" d="M28.68,37.79v-2c0-11-12.84-19.89-28.68-19.89V57.68c0,11,12.84,19.89,28.68,19.89s28.68-8.91,28.68-19.89S44.52,37.79,28.68,37.79Z"/><path class="cls-2" d="M28.68,57.68v2c10,0,18.82,3.56,24,9a15.84,15.84,0,0,0,4.73-10.94c0-11-12.84-19.89-28.68-19.89v-2c0-11-12.84-19.89-28.68-19.89V37.79C15.84,37.79,28.68,46.69,28.68,57.68Z"/><path class="cls-3" d="M57.36,0C41.52,0,28.68,8.9,28.68,19.89V57.68c0,7.36-5.77,13.78-14.34,17.22a38.71,38.71,0,0,0,14.34,2.67c15.84,0,28.68-8.91,28.68-19.89V0Z"/></g></g></svg>